# xmcd CD database file
#
# Track frame offsets:
#	150
#	30124
#	66321
#	91788
#	120088
#	145810
#	185080
#	206477
#
# Disc length: 2973 seconds
#
# Revision: 0
# Processed by: cddbd v1.5.2PL0 Copyright (c) Steve Scherf et al.
# Submitted via: CDex 1.51
#
DISCID=610b9b08
DTITLE=Ximo Tebar and Ivam Jazz Ensemble - Steps
DYEAR=2008
DGENRE=Jazz
TTITLE0=Pink Panter - Henry Mancini
TTITLE1=26-2 - John Coltrane
TTITLE2=Four On Six For Wes - Ximo Tebar
TTITLE3=Zap - Ximo Tebar
TTITLE4=Actual Proof - Herbie Hanckok
TTITLE5=Nefertiti - Way Shorter
TTITLE6=Essential Passion - Donald Edwards
TTITLE7=Steps - Ximo Tebar
EXTD=YEAR: 2008
EXTT0=
EXTT1=
EXTT2=
EXTT3=
EXTT4=
EXTT5=
EXTT6=
EXTT7=
PLAYORDER=
